<svg width="229" height="47" viewBox="0 0 229 47" fill="none" xmlns="http://www.w3.org/2000/svg">
<path d="M0 47V0.125H11.7188V35.2812H35.1562V47H0ZM41.0156 47V0.125H52.7344V20.6328V29.4219V47H41.0156ZM58.5938 29.4219V11.8438C58.5938 4.03125 62.5 0.125 70.3125 0.125H93.75V11.8438H70.3125V17.7031H82.0312L93.75 17.7324V29.4219V35.2812C93.75 43.0938 89.8438 47 82.0312 47H58.5938V35.2812H82.0312V29.4219H58.5938ZM111.328 35.2812V11.8438H99.6094V0.125H123.047H134.766V11.8438H123.047V47H111.328V35.2812Z" fill="white"/>
<path d="M140.625 47V11.8438C140.625 4.03125 144.531 0.125 152.344 0.125H175.781V47H164.062V29.4219H152.344V47H140.625ZM164.062 17.7031V11.8438H152.344V17.7031H164.062ZM181.641 47V11.8438C181.641 4.03125 185.547 0.125 193.359 0.125H228.516V47H216.797V11.8438H210.938V35.2812H199.219V11.8438H193.359V47H181.641Z" fill="#67AAF9"/>
</svg>
